<svg width="420" height="386" viewBox="0 0 420 386" fill="none" xmlns="http://www.w3.org/2000/svg">
<path d="M67.2068 191.857C67.9835 192.528 75.3247 191.297 78.8983 190.597C78.6486 189.793 78.4006 188.981 78.2064 188.222C74.2943 189.08 66.2367 191.018 67.2068 191.857Z" fill="#4B5361"/>
<path d="M113.373 216.935C111.538 216.705 110.792 214.137 110.648 212.883C112.679 212.577 114.746 212.148 116.489 211.572C116.818 214.825 115.669 217.224 113.373 216.935Z" fill="#C4C4C4"/>
<path d="M79.5555 192.781C80.2955 195.456 83.7377 194.32 85.7137 193.506L85.0569 189.905L84.5315 187.027L83.7932 182.977C82.5441 183.277 81.1456 183.979 78.7217 184.427C77.5648 184.641 77.7035 186.255 78.2069 188.223C78.401 188.982 78.6499 189.793 78.8987 190.598C79.1312 191.348 79.3646 192.092 79.5555 192.781Z" fill="#C4C4C4"/>
<path d="M103.378 195.147L86.5256 197.962L85.7129 193.507L85.0562 189.906L84.5316 187.028L83.7924 182.978L83.1274 179.333L106.668 174.669L108.098 181.842C120.243 189.376 121.503 203.611 120.927 208.201C120.742 209.665 118.934 210.765 116.489 211.573C114.745 212.149 112.678 212.577 110.648 212.883C108.381 213.225 106.16 213.415 104.481 213.488L108.258 209.121C103.625 205.454 103.075 198.278 103.378 195.147Z" fill="#FFCB56"/>
<path fill-rule="evenodd" clip-rule="evenodd" d="M416.73 325.127L383.389 251.499C380.534 245.788 376.172 237.519 365.357 237.519C364.089 237.519 359.145 237.515 351.299 237.508C302.137 237.466 139.047 237.325 52.3862 237.519C44.2747 237.294 26.97 239.137 22.6435 248.301C18.3177 257.467 5.97029 309.178 0.337496 333.888C-1.50638 341.975 4.12233 362.865 19.2641 362.865H397.803C406.642 362.865 417.656 359.28 419.288 343.284C420.025 332.965 418.764 329.97 417.228 326.324H417.228C417.064 325.936 416.898 325.54 416.73 325.127Z" fill="#193170"/>
<path opacity="0.1" d="M383.389 251.499L416.73 325.127C418.472 329.415 420.104 331.866 419.288 343.285C417.656 359.28 406.642 362.866 397.803 362.866H19.2641C4.12233 362.866 -1.50638 341.975 0.337496 333.888C5.97029 309.178 18.3177 257.467 22.6435 248.301C26.97 239.137 44.2747 237.294 52.3862 237.519C152.879 237.294 356.148 237.519 365.357 237.519C376.172 237.519 380.534 245.788 383.389 251.499Z" fill="#2357DD"/>
<path opacity="0.8" d="M365.355 242.909C374.006 242.909 379.309 252.722 380.25 261.104C370.561 257.51 344.942 256.657 336.29 281.995C325.474 313.669 305.871 342.452 263.285 342.589C153.992 342.985 38.0837 341.973 29.402 341.973C17.469 341.973 12.471 332.269 13.8547 325.126C17.6852 305.358 26.1572 263.665 29.402 255.04C32.6467 246.413 41.1293 242.959 52.3843 242.909C153.779 242.46 358.243 242.909 365.355 242.909Z" fill="#7FA6EA"/>
<path opacity="0.5" d="M388.339 304.908C391.956 311.873 398.478 310.524 402.534 310.3C404.337 313.893 408.618 323.238 411.321 331.865C414.025 340.491 401.633 342.198 395.099 341.973C359.171 342.181 311.89 342.414 263.286 342.589C305.871 342.452 325.474 313.669 336.29 281.995C344.943 256.657 370.562 257.51 380.251 261.104C376.907 261.845 371.234 262.104 373.389 269.447C376.862 281.277 386.201 300.792 388.339 304.908Z" fill="#89A8F9"/>
<path d="M144.146 315.335C141.536 310.766 145.234 302.825 147.41 299.426C141.291 303.505 137.619 312.887 140.067 317.783C142.515 322.678 147.41 321.046 144.146 315.335Z" fill="#A4C3FE"/>
<path d="M222.47 315.335C217.983 325.533 205.065 323.765 197.586 323.494C217.983 329.205 227.502 317.783 228.181 311.664C228.589 307.992 226.217 306.821 222.47 315.335Z" fill="#A4C3FE"/>
<path fill-rule="evenodd" clip-rule="evenodd" d="M152.204 2.44436L161.422 2.34237L215.536 282.002L205.15 278.59L192.65 212.415L130.563 219.41L143.196 293.714L133.978 291.474L83.3643 0.101984L92.582 0L101.876 50.0375L162.161 52.3334L152.204 2.44436ZM163.409 61.5193L103.146 59.2202L115.595 130.191L176.792 126.669L163.409 61.5193ZM129.292 210.228L116.865 139.375L178.04 135.855L191.401 203.229L129.292 210.228Z" fill="#E6EDFC"/>
<path d="M136.565 135.708L142.427 134.429C140.201 132.933 140.645 130.208 141.145 129.032L140.414 125.682L134.366 127.054L135.283 130.312C136.842 131.21 136.787 134.284 136.565 135.708Z" fill="#4B5361"/>
<path d="M143.796 140.943L142.426 134.43L136.564 135.71C136.333 139.459 138.863 147.563 150.829 149.987L151.577 148.688C149.07 147.997 144.003 145.48 143.796 140.943Z" fill="#DAE4FA"/>
<path d="M148.268 138.727C147.529 137.608 147.349 135.78 147.352 135.005C146.143 135.217 143.465 135.4 142.427 134.429L143.798 140.942C144.451 140.387 146.259 139.166 148.268 138.727Z" fill="#DAE4FA"/>
<path d="M147.352 135.006L165.69 131.257C165.5 132.303 166.055 133.639 166.69 134.706L148.268 138.729C147.528 137.61 147.349 135.781 147.352 135.006Z" fill="#4B5361"/>
<path d="M199.363 128.839C200.768 126.055 198.642 122.7 197.9 122.14L167.099 129.743C166.849 130.005 166.705 130.319 166.641 130.665C166.451 131.712 167.006 133.048 167.641 134.114C167.923 134.587 168.22 135.007 168.473 135.326L199.363 128.839Z" fill="#EE7E79"/>
<path d="M220.707 179.301C219.377 179.634 207.541 178.609 204.284 182.211C198.879 177.638 190.564 142.09 189.524 141.466C188.731 140.99 187.75 138.334 187.299 136.887C187.28 136.889 187.258 136.89 187.238 136.893C184.951 137.1 181.002 128.161 179.13 126.706C177.259 125.251 176.22 121.509 176.22 120.469C176.22 119.43 177.467 117.974 179.546 120.469C181.625 122.964 182.664 119.638 186.614 120.469C190.564 121.301 192.85 129.616 194.098 132.111C195.345 134.605 222.37 178.885 220.707 179.301Z" fill="#EDC7C5"/>
<path d="M167.489 227.946C165.992 226.615 171.022 213.949 173.725 207.782C168.666 206.742 156.845 204.663 150.026 204.663C141.502 204.663 131.524 195.101 131.524 194.061C131.524 193.022 130.277 187.201 129.653 185.122C129.029 183.043 130.277 176.598 126.535 177.222C122.793 177.846 125.288 187.617 124.04 188.448C122.793 189.279 118.012 186.785 115.102 187.617C112.191 188.448 113.231 189.904 112.815 191.151C110.736 192.606 113.438 195.101 111.775 196.348C110.445 197.346 110.805 199.12 111.152 199.882C110.805 200.713 110.32 202.833 111.152 204.663C112.191 206.95 115.725 205.079 118.012 207.158C120.299 209.236 124.664 208.197 127.783 210.276C130.693 215.681 169.36 229.61 167.489 227.946Z" fill="#EDC7C5"/>
<path fill-rule="evenodd" clip-rule="evenodd" d="M244.984 174.528C244.937 172.815 244.901 171.471 238.377 171.61C236.95 171.64 235.154 171.847 233.121 172.18C230.318 171.303 226.434 170.785 222.77 170.296C217.548 169.6 212.77 168.962 212.195 167.428C211.585 165.803 211.755 167.606 211.993 170.134V170.135C212.233 172.682 212.543 175.966 212.195 177.223C209.018 178.135 206.127 179.012 203.869 179.727C203.655 179.795 203.447 179.861 203.245 179.925C203.175 179.925 202.87 180.424 202.205 182.42C201.897 183.16 201.625 184.541 201.309 186.15C200.558 189.962 199.555 195.055 197.216 195.933C196.049 196.37 194.754 197.371 193.16 198.602C190.212 200.881 186.242 203.949 180.169 205.703C175.062 207.179 173.486 206.423 172.128 205.771C170.998 205.23 170.017 204.759 167.281 205.703C162.458 207.366 161.114 221.641 161.044 228.57C160.351 228.57 160.628 229.111 167.281 231.273C173.933 233.435 190.425 226.907 197.839 223.373C196.8 231.065 204.7 261.208 206.571 265.782C207.51 268.076 208.134 272.308 208.708 276.191C209.277 280.047 209.795 283.559 210.521 284.492C211.976 286.363 272.471 285.323 273.717 284.492C274.663 283.862 273.46 259.258 272.822 246.186V246.185L272.821 246.173C272.617 241.995 272.471 238.996 272.471 238.341C272.471 236.631 268.477 223.608 265.017 212.322C263.007 205.767 261.177 199.798 260.413 196.972C258.62 190.34 250.955 182.471 247.278 178.697C246.691 178.094 246.204 177.595 245.861 177.223C245.032 176.325 245.007 175.381 244.984 174.528ZM158.091 368.368H186.164V385.501H109.064V368.368H125.758L115.591 350.01L118.039 348.56L119.263 347.835L118.039 344.519L115.107 339.812H109.064V334.509H111.805L108.248 328.798C105.936 328.934 100.987 328.716 99.6818 326.758C98.3764 324.8 88.8029 303.098 84.1802 292.491L93.9707 286.372L116.407 318.191C115.863 320.367 114.612 324.963 113.96 325.942L118.028 334.509H157.641L159.241 328.39C154.481 323.359 149.042 311.746 165.36 305.545L162.912 316.152L166.175 322.679L172.294 319.823L175.558 307.585C181.269 313.161 187.796 325.697 168.215 331.245L167.325 334.509H186.164V339.812H165.878L158.091 368.368ZM148.796 368.368L156.256 339.812H120.548L121.71 342.26L123.75 345.176L126.606 343.483L140.387 368.368H146.594H148.796Z" fill="#2357DD"/>
<path d="M249.054 137.565C236.997 130.913 224.523 138.813 223.9 139.02C220.158 141.307 219.742 145.881 218.287 147.335C217.63 147.993 213.089 150.87 212.258 151.493C211.427 152.117 211.843 152.949 212.466 153.365C213.089 153.78 212.882 153.988 212.258 155.235C211.76 156.233 212.05 157.592 212.258 158.146C210.595 158.146 211.011 159.601 211.011 160.224C211.011 160.848 208.932 162.303 207.685 164.798C206.438 167.292 215.376 171.242 217.871 174.36C219.867 176.855 235.888 175.4 243.649 174.36C244.273 172.975 245.561 169.704 245.728 167.709C245.936 165.214 251.756 163.343 254.043 160.848C256.33 158.354 261.111 144.218 249.054 137.565Z" fill="#EDC7C5"/>
<path d="M206.362 219.006C202.37 221.002 198.046 223.58 196.383 224.619C196.383 227.321 201.58 259.751 204.698 265.156C207.816 270.562 208.233 280.332 208.441 281.371C208.648 282.411 213.43 281.787 215.092 281.787C223.824 282.203 272.469 289.686 274.756 284.489C277.043 279.292 274.34 238.548 273.508 234.805C272.677 231.064 263.945 200.088 261.866 195.307C259.788 190.526 254.763 177.119 245.824 172.961C236.885 168.803 227.946 171.09 231.896 171.506C235.846 171.922 240.455 182.003 248.146 185.329C262.906 198.425 255.63 212.769 250.849 220.253C246.067 227.737 234.218 234.182 221.329 232.103C211.018 230.439 207.054 222.679 206.362 219.006Z" fill="#204EC7"/>
<path d="M225.694 142.104C224.197 142.104 218.28 137.253 215.508 134.828C215.508 133.663 220.22 134.62 222.576 135.243C223.061 134.828 224.239 133.997 225.07 133.997C226.11 133.997 225.694 132.749 232.554 128.591C239.415 124.434 250.224 125.057 259.371 134.828C268.519 144.598 262.074 157.071 261.035 158.527C259.995 159.981 259.995 160.397 260.203 161.853C260.411 163.308 258.332 163.1 259.371 164.555C260.411 166.011 260.203 166.842 258.332 166.842C256.836 166.842 244.543 156.309 238.583 151.043C233.802 137.946 227.565 142.104 225.694 142.104Z" fill="#FFCB56"/>
<path opacity="0.2" d="M147.41 373.67L159.24 328.389C160.872 330.021 165.903 330.973 168.215 331.245L155.977 376.118L147.41 373.67Z" fill="#EE7E79"/>
<path d="M159.24 328.389C160.872 330.021 165.903 330.973 168.215 331.245C187.796 325.697 181.269 313.159 175.558 307.584L172.294 319.822L166.175 322.678L162.912 316.151L165.359 305.545C149.042 311.745 154.481 323.358 159.24 328.389Z" fill="#E6EDFC"/>
<path opacity="0.2" d="M130.277 376.526L115.591 350.01L118.039 348.559L119.263 347.834L123.75 345.175L126.606 343.483L141.291 369.999L130.277 376.526Z" fill="#EE7E79"/>
<path d="M121.71 342.259L123.75 345.175L119.263 347.834L118.039 344.518L108.248 328.797C105.936 328.933 100.987 328.715 99.6818 326.757C98.3764 324.799 88.8029 303.097 84.1802 292.491L93.9707 286.372L116.407 318.191C115.863 320.367 114.612 324.962 113.96 325.941L121.71 342.259Z" fill="#E6EDFC"/>
<path fill-rule="evenodd" clip-rule="evenodd" d="M109.064 368.367V385.5H186.164V368.367H146.594H109.064ZM186.164 339.811V334.508H109.064V339.811H186.164Z" fill="#FFCB56"/>
</svg>
