<svg width="420" height="300" viewBox="0 0 420 300" fill="none" xmlns="http://www.w3.org/2000/svg">
<path d="M0 205.18L96.0758 282.2L242.695 255.88L144.897 187.172L0 205.18Z" fill="black" fill-opacity="0.1"/>
<path d="M355.447 285.407C355.447 279.866 354.062 265.736 351.569 253.546C349.516 243.511 354.223 236.292 359.506 228.335C360.092 229.905 362.429 235.095 367.084 243.295C372.902 253.546 403.1 274.602 405.316 274.325C407.09 274.103 409.38 267.953 410.303 264.905C405.039 264.905 379.828 230.551 377.334 223.071C374.841 215.59 372.078 196.592 369.03 197.977C366.592 199.085 365.975 202.846 365.975 203.954C362.872 202.181 347.697 205.919 340.494 208.782C339.201 213.03 336.276 225.066 334.946 233.045C333.283 243.018 334.392 253.546 338.27 263.797C341.373 271.998 344.181 285.314 345.197 290.948C351.403 291.17 354.616 287.346 355.447 285.407Z" fill="#193170"/>
<path fill-rule="evenodd" clip-rule="evenodd" d="M96.3627 279.379L242.931 255.791L266.476 137.466L264.906 135.374L231.158 137.045L229.392 120.345L136.193 127.194L125.009 115.97L93.616 117.682L86.3562 131.95H72.0327L92.4385 279.379H96.3627ZM392.295 135.8L399.221 140.787C390.633 146.513 370.969 158.689 360.157 161.843C354.062 163.62 353.328 167.657 354.062 170.431C354.796 173.205 357.941 178.743 360.157 182.622C361.368 184.74 362.415 186.15 363.477 187.579C364.361 188.768 365.254 189.97 366.259 191.605C366.919 192.676 367.603 193.649 368.238 194.554C369.739 196.69 370.969 198.441 370.969 200.193C370.969 202.687 361.819 211.158 354.062 212.266C346.305 213.374 340.973 211.314 338.832 207.119C338.368 206.212 337.962 205.373 337.574 204.572C335.879 201.072 334.526 198.278 330.243 193.544C329.877 193.14 329.524 192.751 329.183 192.375C324.608 187.337 322.209 184.696 322.209 181.077C322.209 180.459 322.236 179.871 322.263 179.303C322.407 176.296 322.523 173.844 318.323 170.431C309.457 163.228 286.185 135.8 285.354 132.199C284.523 128.597 286.185 125.549 290.064 125.549C292.858 125.549 306.868 140.36 314.898 148.849C318.014 152.143 320.229 154.484 320.539 154.64C320.962 154.851 321.709 154.901 322.579 154.959C323.986 155.053 325.713 155.169 326.911 156.025C328.851 157.41 349.906 154.64 360.157 149.653C368.358 145.663 384.999 138.755 392.295 135.8Z" fill="#2357DD"/>
<path d="M399.222 140.787L392.295 135.8C385 138.755 368.358 145.663 360.158 149.653C349.907 154.64 328.851 157.41 326.912 156.025C324.972 154.64 321.648 155.194 320.539 154.64C319.431 154.085 293.943 125.549 290.064 125.549C286.185 125.549 284.523 128.597 285.354 132.199C286.185 135.8 309.457 163.228 318.323 170.431C323.317 174.489 322.209 177.188 322.209 181.077C322.209 184.965 324.979 187.726 330.243 193.544C335.507 199.362 336.346 202.25 338.832 207.119C340.974 211.314 346.305 213.374 354.062 212.266C361.82 211.158 370.97 202.687 370.97 200.193C370.97 197.7 368.476 195.206 366.26 191.605C364.043 188.003 362.374 186.5 360.158 182.622C357.941 178.743 354.797 173.205 354.062 170.431C353.328 167.657 354.062 163.62 360.158 161.843C370.97 158.689 390.633 146.513 399.222 140.787Z" fill="black" fill-opacity="0.1"/>
<path d="M119.758 160.154L96.4085 279.429H92.4844L96.4085 259.502L116.422 157.871L215.9 149.691L218.843 137.706L231.204 137.095L264.952 135.423L266.522 137.516L221.982 139.799L218.843 151.974L119.758 160.154Z" fill="black" fill-opacity="0.2"/>
<path d="M116.422 157.871L96.4085 259.502L77.1802 148.93L80.5158 151.784L85.6169 148.169L91.1108 151.784L95.0349 150.262L100.137 153.876L104.257 152.925L110.34 157.871H116.422Z" fill="black" fill-opacity="0.1"/>
<path d="M96.4085 259.502L77.1802 148.93L80.5158 151.784L96.4085 259.502L85.6169 148.169L91.1108 151.784L96.4085 259.502L95.0349 150.262L100.137 153.876L96.4085 259.502L104.257 152.925L110.34 157.871L96.4085 259.502Z" fill="black" fill-opacity="0.2"/>
<path d="M169.554 225.617V219.164L183.053 230.054V182.462H191.135V228.994L202.8 216.745V225.617L187.052 241.751L169.554 225.617Z" fill="white"/>
<path d="M332.815 101.876C321.132 103.924 311.201 89.7302 307.696 82.3773L328.879 75.8627C332.484 68.8545 339.458 53.9104 338.515 50.2046C337.334 45.5729 358.908 43.8446 369.333 45.9934C377.673 47.7128 400.307 40.9018 410.582 37.2813C405.84 43.2961 396.541 59.5606 397.279 76.501C380.659 84.106 344.498 99.8281 332.815 101.876Z" fill="#FFCB56"/>
<path d="M383.659 59.0242C382.874 71.8715 392.324 76.0605 397.147 76.5492C396.408 59.6088 405.708 43.3443 410.45 37.3295C400.175 40.95 377.541 47.761 369.2 46.0416C358.775 43.8928 337.202 45.6211 338.382 50.2528C339.326 53.9586 332.352 68.9027 328.747 75.9109L383.659 59.0242Z" fill="#FFEEC7"/>
<path d="M201.071 107.235C194.356 115.886 195.711 136.851 197.228 146.252C192.5 148.903 174.913 148.272 142.391 124.544L134.944 138.796C126.436 140.969 116.903 133.291 115.82 128.802C114.953 125.211 127.637 97.6565 134.088 84.3282C135.925 83.1635 141.577 80.7233 149.489 80.2816C159.38 79.7286 174.469 91.0461 181.875 94.2621C187.8 96.8354 201.455 94.0876 207.542 92.3915C208.183 93.7346 207.787 98.5835 201.071 107.235Z" fill="#FFEEC7"/>
<path d="M134.944 138.844C126.436 141.018 116.903 133.339 115.82 128.851C123.146 114.83 136.586 120.17 142.391 124.592L134.944 138.844Z" fill="#FFCB56"/>
<path d="M288.125 115.853C288.125 117.626 289.048 123.24 289.51 125.826C289.048 127.489 287.571 130.37 285.354 128.597C282.584 126.381 281.475 120.285 282.307 116.961C283.138 113.636 288.125 113.636 288.125 115.853Z" fill="#EDC7C5"/>
<path d="M395.897 128.32C395.01 129.428 393.126 134.876 392.295 137.462C391.741 138.755 391.685 140.953 395.897 139.402C401.161 137.462 402.546 129.428 402.546 128.32C402.546 127.212 397.005 126.935 395.897 128.32Z" fill="#EDC7C5"/>
<path d="M269.879 102.312C263.553 104.487 252.151 108.929 248.269 111.788C245.649 113.717 239.216 116.793 228.536 114.366C223.39 113.197 217.257 110.75 210.091 106.282C200.131 100.074 192.059 88.2795 186.261 76.8706C181.794 68.0815 178.678 59.5206 177.087 53.9181C188.724 51.5654 213.124 47.3011 217.631 49.0698C223.265 51.2801 233.713 73.623 240.419 81.7483C245.785 88.2479 262.295 98.1658 269.879 102.312Z" fill="#FFEEC7"/>
<path d="M209.858 106.392C199.898 100.183 191.826 88.3892 186.029 76.9803C194.426 83.4422 215.346 95.7222 231.854 93.1462C229.604 98.7121 225.744 110.77 228.304 114.476C223.157 113.307 217.025 110.86 209.858 106.392Z" fill="#FFCB56"/>
<path d="M280.349 95.6474C287.065 104.299 285.71 125.263 284.193 134.665C288.921 137.315 306.508 136.685 339.03 112.956L346.477 127.208C354.985 129.382 364.518 121.703 365.601 117.215C366.467 113.623 353.784 86.0687 347.333 72.7404C345.496 71.5756 339.843 69.1359 331.931 68.6938C322.041 68.1408 306.952 79.4583 299.546 82.6743C293.621 85.2475 279.966 82.4997 273.879 80.8042C273.238 82.1473 273.634 86.9957 280.349 95.6474Z" fill="#FFEEC7"/>
<path d="M346.158 126.945C354.666 129.118 364.199 121.44 365.282 116.951C357.956 102.931 344.516 108.271 338.711 112.694L346.158 126.945Z" fill="#FFCB56"/>
<path d="M254.098 53.6605C260.424 55.8365 271.826 60.2776 275.708 63.1362C278.328 65.0655 284.761 68.1413 295.442 65.7149C300.588 64.5458 306.72 62.0989 313.887 57.6312C323.847 51.4219 331.919 39.6285 337.717 28.2196C342.183 19.4305 345.3 10.8696 346.89 5.26713C335.253 2.9141 310.853 -1.35003 306.346 0.418321C300.712 2.62879 290.265 24.972 283.558 33.0968C278.193 39.5969 261.683 49.5142 254.098 53.6605Z" fill="#FFEEC7"/>
<path d="M313.913 57.6312C323.872 51.422 331.944 39.6285 337.742 28.2196C329.345 34.6815 308.425 46.9615 291.917 44.3855C294.167 49.9514 298.027 62.0097 295.467 65.7149C300.613 64.5458 306.745 62.0989 313.913 57.6312Z" fill="#FFCB56"/>
<path d="M416.96 267.793C416.96 265.577 410.218 265.115 408.371 265.577C406.986 267.424 403.669 270.958 406.709 272.503C411.696 273.888 412.25 281.805 414.743 284.576C417.237 287.346 420 285.802 420 284.576C420 281.962 416.96 270.564 416.96 267.793Z" fill="#4B5361"/>
<path d="M354.617 297.32C355.503 295.769 354.986 289.655 354.617 286.792C352.308 287.346 347.469 288.676 346.582 289.563C345.474 290.671 346.337 292.451 341.602 292.451C337.17 292.451 333.845 292.61 332.183 294.667C331.632 295.349 331.906 299.1 333.845 299.1C335.784 299.1 353.508 299.259 354.617 297.32Z" fill="#4B5361"/>
<path d="M330.623 151.592C332.618 152.7 332.46 156.235 331.629 157.805C333.291 157.805 337.457 157.872 339.211 157.687C339.211 155.865 337.66 153.919 339.211 149.93C341.151 144.943 338.657 143.281 337.826 141.895C336.995 140.51 333.116 140.787 332.285 140.787C331.454 140.787 331.454 141.618 330.623 142.726C329.958 143.613 328.129 144.573 327.298 144.943C327.76 145.312 328.517 146.217 327.852 146.882C327.021 148.544 328.129 150.207 330.623 151.592Z" fill="#EDC7C5"/>
<path d="M332.296 142.986C331.188 142.321 331.28 139.939 331.465 138.831C331.5 136.337 335.343 137.445 337.56 137.445C339.776 137.445 342.547 135.783 345.04 137.445C346.148 135.691 348.974 132.569 351.412 134.121C354.46 136.06 358.615 139.939 361.109 137.445C359.908 139.477 356.51 142.931 352.52 140.493C348.531 138.055 346.486 137.999 345.963 138.276C348.069 140.681 349.646 146.137 346.979 150.744C343.932 156.008 337.006 152.96 336.729 151.575C336.451 150.19 337.283 149.635 338.391 147.973C339.499 146.311 337.56 143.817 335.62 144.372C333.681 144.926 333.681 143.817 332.296 142.986Z" fill="#4B5361"/>
</svg>
