<svg width="420" height="265" viewBox="0 0 420 265" fill="none" xmlns="http://www.w3.org/2000/svg">
<path d="M0 263.829H420" stroke="black"/>
<path d="M374.145 134.24H287.753C283.349 134.24 279.778 137.811 279.778 142.215V255.854C279.778 260.258 283.349 263.829 287.753 263.829H374.145C378.55 263.829 382.12 260.258 382.12 255.854V142.215C382.12 137.811 378.55 134.24 374.145 134.24Z" fill="#FF8E6B"/>
<path d="M299.05 134.24L319.32 263.829H290.079L292.405 134.24H299.05Z" fill="black" fill-opacity="0.05"/>
<path d="M304.367 179.928V158.829H316.867L320.955 164.11V179.928H304.367Z" fill="#FFFBFB"/>
<path d="M316.815 164.083L316.868 158.856L320.981 164.083H316.815Z" fill="#EDE9E9"/>
<path d="M343.576 182.866V158.829H357.817L362.473 164.846V182.866H343.576Z" fill="#FFFBFB"/>
<path d="M357.757 164.816L357.818 158.859L362.504 164.816H357.757Z" fill="#EDE9E9"/>
<path d="M304.367 217.423V193.385H318.608L323.264 199.403V217.423H304.367Z" fill="#FFFBFB"/>
<path d="M318.548 199.372L318.609 193.416L323.296 199.372H318.548Z" fill="#EDE9E9"/>
<path d="M343.576 217.423V193.385H357.817L362.473 199.403V217.423H343.576Z" fill="#FFFBFB"/>
<path d="M357.757 199.372L357.818 193.416L362.504 199.372H357.757Z" fill="#EDE9E9"/>
<path d="M304.367 251.98V227.943H318.608L323.264 233.96V251.98H304.367Z" fill="#FFFBFB"/>
<path d="M318.548 233.93L318.609 227.973L323.296 233.93H318.548Z" fill="#EDE9E9"/>
<path d="M343.576 251.98V227.943H357.817L362.473 233.96V251.98H343.576Z" fill="#FFFBFB"/>
<path d="M357.757 233.93L357.818 227.973L362.504 233.93H357.757Z" fill="#EDE9E9"/>
<path d="M90.3799 256.851V7.30974C90.3799 3.27249 93.6524 0 97.6897 0H243.297C245.559 0 247.693 1.04708 249.078 2.83617L296.525 64.1474C297.516 65.4284 298.054 67.0022 298.054 68.6216V256.851C298.054 260.888 294.781 264.161 290.744 264.161H97.6897C93.6524 264.161 90.3799 260.888 90.3799 256.851Z" fill="#193170"/>
<path d="M246.219 65.7906L246.883 0.331909L298.386 65.7906H246.219Z" fill="white" fill-opacity="0.18"/>
<path d="M272.468 98.3541H116.297C112.627 98.3541 109.651 101.329 109.651 105V194.715C109.651 198.385 112.627 201.36 116.297 201.36H272.468C276.138 201.36 279.113 198.385 279.113 194.715V105C279.113 101.329 276.138 98.3541 272.468 98.3541Z" fill="white" fill-opacity="0.05" stroke="white" stroke-dasharray="11.39 11.39"/>
<path d="M223.956 120.284H162.817C160.981 120.284 159.494 121.772 159.494 123.607V184.082C159.494 185.917 160.981 187.405 162.817 187.405H223.956C225.791 187.405 227.279 185.917 227.279 184.082V123.607C227.279 121.772 225.791 120.284 223.956 120.284Z" fill="white"/>
<path d="M221.962 125.601H164.146V174.114H221.962V125.601Z" fill="#FFE6E6"/>
<path d="M181.424 140.554L164.478 161.155V174.114H221.962V164.81L181.424 140.554Z" fill="#4C3DFA"/>
<path d="M210.664 142.879L221.962 161.155V174.114H164.478V164.81L187.571 153.845L210.664 142.879Z" fill="#6256F8"/>
<path d="M199.367 138.892C201.202 138.892 202.69 137.405 202.69 135.57C202.69 133.734 201.202 132.247 199.367 132.247C197.532 132.247 196.044 133.734 196.044 135.57C196.044 137.405 197.532 138.892 199.367 138.892Z" fill="#F0EFEF"/>
<path d="M277.12 219.968H111.645C110.177 219.968 108.987 221.158 108.987 222.626V241.234C108.987 242.702 110.177 243.892 111.645 243.892H277.12C278.588 243.892 279.778 242.702 279.778 241.234V222.626C279.778 221.158 278.588 219.968 277.12 219.968Z" fill="white"/>
<path fill-rule="evenodd" clip-rule="evenodd" d="M51.156 142.631C51.156 145.456 49.2975 149.393 49.2975 149.393L48.5275 151.447L56.462 153.809C56.5005 153.656 56.3967 153.271 56.2619 152.774C55.9948 151.785 55.6074 150.349 55.9714 149.393C56.1482 148.544 56.5699 147.708 56.8155 147.221H56.8161C56.8878 147.078 56.9444 146.966 56.9753 146.891C57.281 146.98 57.5686 147.082 57.841 147.18C59.248 147.684 60.2648 148.048 61.3404 145.529C62.6238 142.522 65.3625 130.394 58.7726 130.993C51.2418 131.677 51.156 139.808 51.156 142.631ZM8.69167 188.98C5.796 192.476 0.598505 199.362 2.9715 198.938C5.3445 198.514 9.60985 195.442 11.4462 193.959C10.9521 195.16 10.2597 197.497 11.4462 197.243C12.376 197.044 12.9523 194.664 13.4301 192.692H13.4307C13.5625 192.146 13.6868 191.633 13.8093 191.205C13.8093 191.205 13.7346 189.846 13.8093 188.98C14.0368 186.346 16.1397 182.624 16.1397 182.624L13.0678 181.353L10.5251 186.861L8.69167 188.98ZM10.7368 239.088L3.85118 249.152L7.13534 250.635L14.7624 243.007L10.7368 239.088ZM40.9296 258.792L42.3068 253.177L43.26 246.927L49.8284 248.834L44.4255 258.792H40.9296ZM107.791 137.076C108.274 135.957 108.669 135.046 108.94 134.741C109.788 133.787 109.788 136.965 108.94 138.343C108.652 138.812 109.112 138.432 109.92 137.765C111.484 136.475 114.351 134.109 115.614 134.741C116.614 135.241 116.314 136.061 115.98 136.976C115.819 137.418 115.649 137.882 115.614 138.343C115.12 138.836 114.741 139.706 114.391 140.51C114.089 141.201 113.809 141.843 113.496 142.156C112.648 143.004 110.953 143.639 108.94 144.381L103.856 148.83L98.6644 153.491L96.9693 149.995L105.127 142.156C106.142 140.887 107.067 138.749 107.791 137.076Z" fill="#FFCCCC"/>
<path d="M8.8299 241.948L4.27466 248.622L4.59257 249.575L11.1603 244.278L8.8299 241.948Z" fill="black" fill-opacity="0.06"/>
<path d="M42.3057 259.428L46.543 249.045L42.8354 250.847L40.8223 259.428H42.3057Z" fill="black" fill-opacity="0.03"/>
<path d="M52.4405 143.83C52.0298 144.583 51.0714 143.83 50.5575 142.888C49.8733 140.578 50.9857 136.983 52.0129 133.817C52.8313 131.293 55.265 129.88 56.3774 129.88C57.4898 129.88 62.111 129.366 63.0525 127.312C63.994 125.258 69.3 126.285 67.9309 129.88C66.8267 132.778 63.9083 131.934 63.5664 133.559C63.224 135.186 59.3728 133.817 57.4041 134.672C55.4359 135.528 56.4632 140.578 55.9493 140.492C55.4359 140.406 55.0935 138.352 53.8096 138.267C52.5263 138.181 52.9538 142.888 52.4405 143.83Z" fill="#181E55"/>
<path fill-rule="evenodd" clip-rule="evenodd" d="M40.5994 219.65C42.2065 221.875 43.9099 224.038 45.6954 226.057L41.2464 253.177H49.5093C49.5093 253.177 58.9377 236.265 58.9377 226.057C58.9377 218.641 53.2169 195.441 53.2169 195.441L50.3569 183.682L26.2034 187.496V193.429C26.3632 193.841 26.5446 194.293 26.7459 194.78L25.6737 217.582C19.8118 224.291 7.83419 238.684 6.81744 242.583L12.1141 248.198C12.1141 248.198 31.7124 231.883 39.0215 222.243C39.6195 221.455 40.1421 220.581 40.5994 219.65Z" fill="#313EB1"/>
<path d="M45.696 226.057C35.9503 215.04 28.6405 199.714 26.2039 193.429V187.496L50.3574 183.683L53.2175 195.442C53.2175 195.442 58.9383 218.642 58.9383 226.057C58.9383 236.265 49.5098 253.177 49.5098 253.177H41.2469L45.696 226.057Z" fill="black" fill-opacity="0.14"/>
<path fill-rule="evenodd" clip-rule="evenodd" d="M33.6187 168.64C29.5225 175.809 22.2203 190.866 25.7798 193.747C29.7348 192.828 38.2591 191.268 40.7167 192.369C42.2642 193.064 42.3867 193.542 42.5069 194.009C42.6253 194.469 42.7402 194.917 44.2126 195.548C45.7771 196.218 47.0768 195.887 48.2819 195.579C49.3611 195.304 50.365 195.047 51.4162 195.548C53.641 196.607 55.4417 195.971 55.3356 191.522C55.23 187.073 56.0776 184.106 57.4548 182.094C57.8602 181.501 58.3852 180.09 59.0164 178.394C60.5278 174.333 62.6471 168.64 65.1881 168.64C66.4393 168.64 67.6906 168.87 69.1069 169.131C71.7657 169.62 75.005 170.216 79.9132 169.593C85.9302 168.831 99.0167 157.34 104.808 151.69C105.398 145.866 103.884 143.274 103.195 142.094C103.013 141.782 102.888 141.568 102.875 141.42C103.021 141.249 103.07 141.171 103.007 141.202C102.905 141.253 102.866 141.322 102.875 141.42C101.036 143.567 83.7702 160.396 78.4297 159.106C74.7921 158.227 70.6405 155.167 67.487 152.842C65.6437 151.482 64.141 150.375 63.2812 150.101C60.9507 149.36 57.0307 150.101 57.0307 150.101C56.3407 150.101 55.7398 150.224 55.1623 150.343C53.613 150.661 52.2293 150.945 49.721 148.724C46.0133 145.44 23.0253 159.106 16.457 165.885L9.14784 183.259C10.878 184.46 14.9316 186.713 17.3046 186.12L23.0253 173.619C25.7092 171.959 31.5852 168.64 33.6187 168.64ZM0.778166 252.242C0.778166 252.242 -0.30158 250.561 4.18192 247.375C5.25817 249.6 6.56016 250.081 7.88725 250.572C8.82408 250.919 9.77258 251.27 10.6627 252.242C11.0495 252.664 11.5506 253.15 12.0861 253.67C14.371 255.887 17.2754 258.707 14.5034 259.652L0.778166 252.242ZM40.7307 263.139C37.9937 262.869 37.6705 261.293 40.5528 256.608C42.0793 257.551 42.9071 257.479 43.8247 257.4C44.8618 257.31 46.0139 257.211 48.4202 258.556C49.0875 258.929 50.0033 259.3 50.9553 259.685C53.7542 260.819 56.861 262.077 54.8508 263.877L40.7307 263.139Z" fill="#2357DD"/>
<path d="M63.8102 166.415C60.9146 169.18 60.2087 174.996 60.2087 174.996C62.6453 169.593 64.4111 168.675 65.0819 168.534C71.1836 169.805 76.8407 170.123 80.0187 169.593C84.0869 169.254 92.0599 162.955 95.5914 159.847C95.5914 159.847 86.1414 166.146 79.3829 167.369C73.4393 168.444 68.3416 162.091 63.8102 166.415Z" fill="black" fill-opacity="0.08"/>
<path d="M21.2246 172.348C20.4208 174.574 20.6949 178.386 20.6949 178.386L23.0253 173.619C26.1613 171.246 31.6768 169.099 33.9366 168.428C24.1057 184.53 24.1908 192.264 25.7798 193.747L39.6573 191.84C39.6573 191.84 33.2098 187.729 33.9366 181.035C34.4633 176.186 34.6786 172.348 36.9028 165.356C37.7323 162.75 34.6803 165.096 32.1358 166.098C26.5825 168.283 23.2511 166.734 21.2246 172.348Z" fill="black" fill-opacity="0.05"/>
<path d="M126.054 128.685L111.101 122.644C110.672 122.471 110.185 122.677 110.012 123.106L104.036 137.896C103.863 138.325 104.07 138.812 104.498 138.985L119.451 145.027C119.88 145.2 120.367 144.993 120.54 144.564L126.516 129.774C126.689 129.346 126.482 128.858 126.054 128.685Z" fill="white" stroke="black" stroke-width="0.137454"/>
<path d="M125.004 129.773L110.938 124.09L106.175 135.881L120.241 141.564L125.004 129.773Z" fill="white" stroke="black" stroke-width="0.137454"/>
<path d="M113.664 129.403L107.483 132.767L106.203 135.936L120.262 141.616L121.182 139.341L113.664 129.403Z" fill="#4C3DFA"/>
<path d="M120.585 132.861L121.542 138.447L120.262 141.616L106.203 135.936L107.122 133.66L113.854 133.261L120.585 132.861Z" fill="#6256F8"/>
<path d="M118.216 130.769C118.665 130.95 119.176 130.733 119.357 130.284C119.538 129.836 119.322 129.325 118.873 129.143C118.424 128.962 117.913 129.179 117.732 129.628C117.55 130.077 117.767 130.587 118.216 130.769Z" fill="#F0EFEF"/>
<path d="M218.639 229.272H180.095C178.994 229.272 178.101 230.164 178.101 231.265C178.101 232.366 178.994 233.259 180.095 233.259H218.639C219.74 233.259 220.633 232.366 220.633 231.265C220.633 230.164 219.74 229.272 218.639 229.272Z" fill="black" fill-opacity="0.11"/>
<path d="M153.846 32.5634H110.65C109.732 32.5634 108.988 33.3072 108.988 34.2248C108.988 35.1424 109.732 35.8862 110.65 35.8862H153.846C154.763 35.8862 155.507 35.1424 155.507 34.2248C155.507 33.3072 154.763 32.5634 153.846 32.5634Z" fill="black" fill-opacity="0.11"/>
<path d="M143.877 39.2087H110.649C109.732 39.2087 108.988 39.9526 108.988 40.8701C108.988 41.7877 109.732 42.5315 110.649 42.5315H143.877C144.794 42.5315 145.538 41.7877 145.538 40.8701C145.538 39.9526 144.794 39.2087 143.877 39.2087Z" fill="black" fill-opacity="0.11"/>
<path d="M174.778 229.272H166.803C165.702 229.272 164.81 230.164 164.81 231.265C164.81 232.366 165.702 233.259 166.803 233.259H174.778C175.879 233.259 176.772 232.366 176.772 231.265C176.772 230.164 175.879 229.272 174.778 229.272Z" fill="black" fill-opacity="0.11"/>
<path d="M394.407 237.633C394.407 221.638 394.407 180.759 394.407 180.759C394.407 180.759 383.032 215.95 378.766 235.145C377.1 242.641 383.743 254.695 383.743 254.695C383.743 254.695 394.406 245.526 394.407 237.633Z" fill="#2C8B74"/>
<path d="M388.365 210.618L390.853 192.49L380.9 226.969L388.365 210.618Z" fill="black" fill-opacity="0.05"/>
<path d="M394.407 211.329C393.554 216.448 386.113 240.595 382.321 251.851L383.743 254.34C390.141 249.719 393.34 243.321 394.407 238.699V211.329Z" fill="black" fill-opacity="0.18"/>
<path d="M382.321 264.293L394.051 181.825" stroke="black" stroke-width="0.609362"/>
<path d="M375.384 252.207C377.499 246.778 379.192 225.386 369.038 183.248C362.575 203.462 354.795 245.554 375.384 252.207Z" fill="#2C8B74"/>
<path d="M372.013 201.732C369.88 214.528 373.292 235.216 376.989 239.766C378.055 229.814 374.856 208.486 372.013 201.732Z" fill="black" fill-opacity="0.11"/>
<path d="M375.568 253.629C372.013 242.017 367.037 225.548 362.771 213.817C360.994 225.784 361.705 249.363 375.568 253.629Z" fill="black" fill-opacity="0.18"/>
<path d="M381.61 264.648C376.753 257.657 367.178 237.562 367.747 213.106C368.037 200.665 369.051 181.707 369.169 184.314" stroke="black" stroke-width="0.609362"/>
<path d="M402.227 246.52C399.098 255.904 389.667 259.435 381.61 264.293C381.61 264.293 387.521 250.087 394.052 243.321C401.788 235.303 418.578 228.747 418.578 228.747C418.578 228.747 405.355 237.135 402.227 246.52Z" fill="#183D45"/>
<path d="M381.611 264.293C391.208 252.8 406.493 234.079 415.735 230.169" stroke="white" stroke-width="0.365617"/>
<path d="M405.071 254.34C395.856 253.515 381.965 264.293 381.965 264.293C381.965 264.293 396.829 259.771 405.071 259.362C410.909 259.073 420 262.159 420 262.159C420 262.159 411.439 254.91 405.071 254.34Z" fill="#285964"/>
<path d="M419.289 261.804C419.289 261.804 409.92 256.329 403.294 256.117C394.817 255.845 383.032 263.937 383.032 263.937" stroke="white" stroke-width="0.243745"/>
<path d="M361.349 246.52C364.477 255.904 373.908 259.435 381.965 264.293C381.965 264.293 376.055 250.087 369.525 243.321C361.788 235.303 344.998 228.747 344.998 228.747C344.998 228.747 358.221 237.135 361.349 246.52Z" fill="#183D45"/>
<path d="M381.966 264.293C372.368 252.8 357.083 234.079 347.842 230.169" stroke="white" stroke-width="0.365617"/>
<path d="M358.505 254.34C367.72 253.515 381.61 264.293 381.61 264.293C381.61 264.293 366.746 259.771 358.505 259.363C352.667 259.074 343.576 262.16 343.576 262.16C343.576 262.16 352.136 254.91 358.505 254.34Z" fill="#285964"/>
<path d="M344.286 261.804C344.286 261.804 353.656 256.329 360.282 256.117C368.759 255.845 380.543 263.937 380.543 263.937" stroke="white" stroke-width="0.243745"/>
</svg>
