<?xml version="1.0" standalone="no"?>
<!DOCTYPE svg PUBLIC "-//W3C//DTD SVG 20010904//EN"
 "http://www.w3.org/TR/2001/REC-SVG-20010904/DTD/svg10.dtd">
<svg version="1.0" xmlns="http://www.w3.org/2000/svg"
 width="300.000000pt" height="300.000000pt" viewBox="0 0 300.000000 300.000000"
 preserveAspectRatio="xMidYMid meet">
<metadata>
Created by potrace 1.11, written by Peter Selinger 2001-2013
</metadata>
<g transform="translate(0.000000,300.000000) scale(0.100000,-0.100000)"
fill="#000000" stroke="none">
<path d="M1775 2993 c-79 -20 -137 -126 -114 -207 45 -156 256 -175 321 -30
60 137 -59 274 -207 237z"/>
<path d="M844 1903 c-66 -80 -208 -247 -221 -261 -7 -7 -29 -34 -50 -59 -21
-26 -45 -54 -53 -63 -8 -9 -45 -52 -82 -96 -105 -126 -364 -431 -421 -497 -16
-18 -17 -56 -17 -474 l0 -453 1500 0 1500 0 0 453 0 452 -166 265 c-92 146
-174 279 -184 295 -9 17 -53 86 -96 155 -43 69 -85 137 -92 151 -8 14 -23 37
-35 52 l-22 26 -65 -32 c-36 -18 -108 -52 -160 -76 -151 -71 -287 -135 -404
-190 -60 -29 -114 -50 -121 -47 -7 2 -43 23 -80 45 -37 23 -69 41 -71 41 -3 0
-21 11 -42 23 -20 13 -97 58 -169 100 -126 73 -391 226 -404 233 -4 2 -24 -18
-45 -43z"/>
</g>
</svg>
